<?xml version="1.0" encoding="utf-8"?>
<!-- Generator: Adobe Illustrator 27.2.0, SVG Export Plug-In . SVG Version: 6.00 Build 0)  -->
<svg version="1.1" id="Layer_1" xmlns="http://www.w3.org/2000/svg" xmlns:xlink="http://www.w3.org/1999/xlink" x="0px" y="0px"
	 viewBox="0 0 2354 300" style="enable-background:new 0 0 2354 300;" xml:space="preserve">
<style type="text/css">
	.st0{fill:#FFFFFF;}
</style>
<path class="st0" d="M1791.5,52h258v236h45V52h258V12h-561V52z M1219.5,288h44V60.5l423,227.5h40V12h-44v227.5L1259.5,12h-40V288z
	 M740.5,181L871,57l130.5,124H740.5z M1.5,150C1.5,235,130,298,298,298c94,0,185-19.5,246.5-51.5v-114h-298v38h255v52
	c-48,22.5-124.5,36-201.5,36C156,258.5,48.5,212,48.5,150S154.5,41.5,296,41.5c83,0,165.5,16.5,217,44L533.5,49
	C476,19,384.5,2,297,2C128,2,1.5,65.5,1.5,150z M569.5,288H628l72.5-69h341l72.5,69h59.5L871.5,2L569.5,288z"/>
</svg>
